<svg width="17" height="20" viewBox="0 0 17 20" fill="none" xmlns="http://www.w3.org/2000/svg">
<g clip-path="url(#clip0_170_460)">
<path d="M13.5746 10.6051C13.6026 13.626 16.2247 14.6313 16.2537 14.6441C16.2315 14.715 15.8348 16.0767 14.8723 17.4832C14.0403 18.6993 13.1768 19.9109 11.8165 19.9359C10.48 19.9606 10.0501 19.1434 8.522 19.1434C6.99431 19.1434 6.51679 19.9109 5.25152 19.9606C3.9385 20.0103 2.93863 18.6457 2.09977 17.434C0.385487 14.9557 -0.924545 10.4309 0.834503 7.37651C1.70834 5.85968 3.27006 4.89924 4.96504 4.8746C6.25438 4.85003 7.47139 5.74203 8.25958 5.74203C9.04727 5.74203 10.5262 4.66933 12.0809 4.82686C12.7317 4.85397 14.5588 5.08971 15.7319 6.80692C15.6373 6.86552 13.5519 8.07956 13.5746 10.6051V10.6051ZM11.0626 3.18724C11.7598 2.34343 12.2289 1.16883 12.1009 0C11.0961 0.040381 9.88111 0.669587 9.16035 1.51289C8.51444 2.25975 7.94879 3.45505 8.10142 4.6007C9.22142 4.68737 10.3656 4.03156 11.0627 3.18724" fill="black"/>
</g>
<defs>
<clipPath id="clip0_170_460">
<rect width="16.254" height="20" fill="white"/>
</clipPath>
</defs>
</svg>
