<svg width="120" height="121" viewBox="0 0 120 121" fill="none" xmlns="http://www.w3.org/2000/svg">
<g opacity="0.24" clip-path="url(#clip0_25_172)">
<g clip-path="url(#clip1_25_172)">
<circle cx="2.99951" cy="3.54248" r="3" fill="#17325C"/>
<circle cx="16.9995" cy="3.54248" r="3" fill="#17325C"/>
<circle cx="30.9995" cy="3.54248" r="3" fill="#17325C"/>
<circle cx="44.9995" cy="3.54248" r="3" fill="#17325C"/>
<circle cx="58.9995" cy="3.54248" r="3" fill="#17325C"/>
<circle cx="72.9995" cy="3.54248" r="3" fill="#17325C"/>
<circle cx="86.9995" cy="3.54248" r="3" fill="#17325C"/>
<circle cx="101" cy="3.54248" r="3" fill="#17325C"/>
<circle cx="115" cy="3.54248" r="3" fill="#17325C"/>
</g>
<g clip-path="url(#clip2_25_172)">
<circle cx="2.99951" cy="17.5425" r="3" fill="#17325C"/>
<circle cx="16.9995" cy="17.5425" r="3" fill="#17325C"/>
<circle cx="30.9995" cy="17.5425" r="3" fill="#17325C"/>
<circle cx="44.9995" cy="17.5425" r="3" fill="#17325C"/>
<circle cx="58.9995" cy="17.5425" r="3" fill="#17325C"/>
<circle cx="72.9995" cy="17.5425" r="3" fill="#17325C"/>
<circle cx="86.9995" cy="17.5425" r="3" fill="#17325C"/>
<circle cx="101" cy="17.5425" r="3" fill="#17325C"/>
<circle cx="115" cy="17.5425" r="3" fill="#17325C"/>
</g>
<g clip-path="url(#clip3_25_172)">
<circle cx="2.99951" cy="31.5425" r="3" fill="#17325C"/>
<circle cx="16.9995" cy="31.5425" r="3" fill="#17325C"/>
<circle cx="30.9995" cy="31.5425" r="3" fill="#17325C"/>
<circle cx="44.9995" cy="31.5425" r="3" fill="#17325C"/>
<circle cx="58.9995" cy="31.5425" r="3" fill="#17325C"/>
<circle cx="72.9995" cy="31.5425" r="3" fill="#17325C"/>
<circle cx="86.9995" cy="31.5425" r="3" fill="#17325C"/>
<circle cx="101" cy="31.5425" r="3" fill="#17325C"/>
<circle cx="115" cy="31.5425" r="3" fill="#17325C"/>
</g>
<g clip-path="url(#clip4_25_172)">
<circle cx="2.99951" cy="45.5425" r="3" fill="#17325C"/>
<circle cx="16.9995" cy="45.5425" r="3" fill="#17325C"/>
<circle cx="30.9995" cy="45.5425" r="3" fill="#17325C"/>
<circle cx="44.9995" cy="45.5425" r="3" fill="#17325C"/>
<circle cx="58.9995" cy="45.5425" r="3" fill="#17325C"/>
<circle cx="72.9995" cy="45.5425" r="3" fill="#17325C"/>
<circle cx="86.9995" cy="45.5425" r="3" fill="#17325C"/>
<circle cx="101" cy="45.5425" r="3" fill="#17325C"/>
<circle cx="115" cy="45.5425" r="3" fill="#17325C"/>
</g>
<g clip-path="url(#clip5_25_172)">
<circle cx="2.99951" cy="59.5425" r="3" fill="#17325C"/>
<circle cx="16.9995" cy="59.5425" r="3" fill="#17325C"/>
<circle cx="30.9995" cy="59.5425" r="3" fill="#17325C"/>
<circle cx="44.9995" cy="59.5425" r="3" fill="#17325C"/>
<circle cx="58.9995" cy="59.5425" r="3" fill="#17325C"/>
<circle cx="72.9995" cy="59.5425" r="3" fill="#17325C"/>
<circle cx="86.9995" cy="59.5425" r="3" fill="#17325C"/>
<circle cx="101" cy="59.5425" r="3" fill="#17325C"/>
<circle cx="115" cy="59.5425" r="3" fill="#17325C"/>
</g>
<g clip-path="url(#clip6_25_172)">
<circle cx="2.99951" cy="73.5425" r="3" fill="#17325C"/>
<circle cx="16.9995" cy="73.5425" r="3" fill="#17325C"/>
<circle cx="30.9995" cy="73.5425" r="3" fill="#17325C"/>
<circle cx="44.9995" cy="73.5425" r="3" fill="#17325C"/>
<circle cx="58.9995" cy="73.5425" r="3" fill="#17325C"/>
<circle cx="72.9995" cy="73.5425" r="3" fill="#17325C"/>
<circle cx="86.9995" cy="73.5425" r="3" fill="#17325C"/>
<circle cx="101" cy="73.5425" r="3" fill="#17325C"/>
<circle cx="115" cy="73.5425" r="3" fill="#17325C"/>
</g>
<g clip-path="url(#clip7_25_172)">
<circle cx="2.99951" cy="87.5425" r="3" fill="#17325C"/>
<circle cx="16.9995" cy="87.5425" r="3" fill="#17325C"/>
<circle cx="30.9995" cy="87.5425" r="3" fill="#17325C"/>
<circle cx="44.9995" cy="87.5425" r="3" fill="#17325C"/>
<circle cx="58.9995" cy="87.5425" r="3" fill="#17325C"/>
<circle cx="72.9995" cy="87.5425" r="3" fill="#17325C"/>
<circle cx="86.9995" cy="87.5425" r="3" fill="#17325C"/>
<circle cx="101" cy="87.5425" r="3" fill="#17325C"/>
<circle cx="115" cy="87.5425" r="3" fill="#17325C"/>
</g>
<g clip-path="url(#clip8_25_172)">
<circle cx="2.99951" cy="101.542" r="3" fill="#17325C"/>
<circle cx="16.9995" cy="101.542" r="3" fill="#17325C"/>
<circle cx="30.9995" cy="101.542" r="3" fill="#17325C"/>
<circle cx="44.9995" cy="101.542" r="3" fill="#17325C"/>
<circle cx="58.9995" cy="101.542" r="3" fill="#17325C"/>
<circle cx="72.9995" cy="101.542" r="3" fill="#17325C"/>
<circle cx="86.9995" cy="101.542" r="3" fill="#17325C"/>
<circle cx="101" cy="101.542" r="3" fill="#17325C"/>
<circle cx="115" cy="101.542" r="3" fill="#17325C"/>
</g>
<g clip-path="url(#clip9_25_172)">
<circle cx="2.99951" cy="115.542" r="3" fill="#17325C"/>
<circle cx="16.9995" cy="115.542" r="3" fill="#17325C"/>
<circle cx="30.9995" cy="115.542" r="3" fill="#17325C"/>
<circle cx="44.9995" cy="115.542" r="3" fill="#17325C"/>
<circle cx="58.9995" cy="115.542" r="3" fill="#17325C"/>
<circle cx="72.9995" cy="115.542" r="3" fill="#17325C"/>
<circle cx="86.9995" cy="115.542" r="3" fill="#17325C"/>
<circle cx="101" cy="115.542" r="3" fill="#17325C"/>
<circle cx="115" cy="115.542" r="3" fill="#17325C"/>
</g>
</g>
<defs>
<clipPath id="clip0_25_172">
<rect width="120" height="120" fill="white" transform="translate(-0.000488281 0.54248)"/>
</clipPath>
<clipPath id="clip1_25_172">
<rect width="120" height="14" fill="white" transform="translate(-0.000488281 0.54248)"/>
</clipPath>
<clipPath id="clip2_25_172">
<rect width="120" height="14" fill="white" transform="translate(-0.000488281 14.5425)"/>
</clipPath>
<clipPath id="clip3_25_172">
<rect width="120" height="14" fill="white" transform="translate(-0.000488281 28.5425)"/>
</clipPath>
<clipPath id="clip4_25_172">
<rect width="120" height="14" fill="white" transform="translate(-0.000488281 42.5425)"/>
</clipPath>
<clipPath id="clip5_25_172">
<rect width="120" height="14" fill="white" transform="translate(-0.000488281 56.5425)"/>
</clipPath>
<clipPath id="clip6_25_172">
<rect width="120" height="14" fill="white" transform="translate(-0.000488281 70.5425)"/>
</clipPath>
<clipPath id="clip7_25_172">
<rect width="120" height="14" fill="white" transform="translate(-0.000488281 84.5425)"/>
</clipPath>
<clipPath id="clip8_25_172">
<rect width="120" height="14" fill="white" transform="translate(-0.000488281 98.5425)"/>
</clipPath>
<clipPath id="clip9_25_172">
<rect width="120" height="14" fill="white" transform="translate(-0.000488281 112.542)"/>
</clipPath>
</defs>
</svg>
