<svg width="20" height="20" viewBox="0 0 20 20" fill="none" xmlns="http://www.w3.org/2000/svg">
<path d="M10 7.39658C8.56644 7.39658 7.39652 8.5665 7.39652 10.0001C7.39652 11.4337 8.56644 12.6036 10 12.6036C11.4336 12.6036 12.6035 11.4337 12.6035 10.0001C12.6035 8.5665 11.4336 7.39658 10 7.39658ZM17.8086 10.0001C17.8086 8.92197 17.8184 7.85361 17.7578 6.77744C17.6973 5.52744 17.4121 4.41806 16.4981 3.504C15.5821 2.58798 14.4746 2.30478 13.2246 2.24423C12.1465 2.18369 11.0782 2.19345 10.002 2.19345C8.92386 2.19345 7.8555 2.18369 6.77933 2.24423C5.52933 2.30478 4.41995 2.58994 3.50589 3.504C2.58988 4.42001 2.30667 5.52744 2.24613 6.77744C2.18558 7.85556 2.19534 8.92392 2.19534 10.0001C2.19534 11.0763 2.18558 12.1466 2.24613 13.2227C2.30667 14.4727 2.59183 15.5821 3.50589 16.4962C4.42191 17.4122 5.52933 17.6954 6.77933 17.7559C7.85745 17.8165 8.92581 17.8067 10.002 17.8067C11.0801 17.8067 12.1485 17.8165 13.2246 17.7559C14.4746 17.6954 15.584 17.4102 16.4981 16.4962C17.4141 15.5802 17.6973 14.4727 17.7578 13.2227C17.8203 12.1466 17.8086 11.0782 17.8086 10.0001ZM10 14.0059C7.78323 14.0059 5.99417 12.2169 5.99417 10.0001C5.99417 7.7833 7.78323 5.99423 10 5.99423C12.2168 5.99423 14.0059 7.7833 14.0059 10.0001C14.0059 12.2169 12.2168 14.0059 10 14.0059ZM14.17 6.76572C13.6524 6.76572 13.2344 6.34775 13.2344 5.83017C13.2344 5.31259 13.6524 4.89462 14.17 4.89462C14.6875 4.89462 15.1055 5.31259 15.1055 5.83017C15.1057 5.95307 15.0816 6.0748 15.0346 6.18837C14.9876 6.30195 14.9187 6.40514 14.8318 6.49205C14.7449 6.57895 14.6417 6.64786 14.5282 6.69482C14.4146 6.74178 14.2929 6.76587 14.17 6.76572Z" fill="white"/>
</svg>
