<svg width="20" height="20" viewBox="0 0 20 20" fill="none" xmlns="http://www.w3.org/2000/svg">
<g clip-path="url(#clip0_210_73)">
<path d="M4.54012 19.5587V6.66013H0.252884V19.5587H4.54012ZM2.39705 4.89799C3.89209 4.89799 4.82267 3.90753 4.82267 2.66979C4.79482 1.40413 3.89214 0.441162 2.42542 0.441162C0.958934 0.441162 -6.10352e-05 1.40415 -6.10352e-05 2.66979C-6.10352e-05 3.90759 0.930296 4.89799 2.36907 4.89799H2.39692H2.39705ZM6.91308 19.5587H11.2003V12.3555C11.2003 11.97 11.2282 11.5849 11.3414 11.3093C11.6513 10.5391 12.3567 9.74136 13.5411 9.74136C15.0924 9.74136 15.7131 10.9242 15.7131 12.6582V19.5586H20V12.1627C20 8.20076 17.8849 6.35731 15.0642 6.35731C12.7514 6.35731 11.7359 7.65008 11.1718 8.53058H11.2004V6.65987H6.91318C6.96944 7.8702 6.91318 19.5584 6.91318 19.5584L6.91308 19.5587Z" fill="white"/>
</g>
<defs>
<clipPath id="clip0_210_73">
<rect width="20" height="19.1175" fill="white" transform="translate(0 0.441162)"/>
</clipPath>
</defs>
</svg>
