<svg width="388" height="323" viewBox="0 0 388 323" fill="none" xmlns="http://www.w3.org/2000/svg">
<path opacity="0.06" d="M367.9 160.72C378 206.72 349.8 236.42 310.8 235.02C292.1 234.32 269.8 213.82 251.4 209.22C227.4 203.22 206.6 211.02 183.7 212.12C126.7 214.92 127.4 191.62 88.9999 161.62C61.9999 140.52 18.3999 142.82 3.99992 105.92C-13.7001 60.7204 36.9999 38.9204 75.4999 45.6204C119.7 53.3204 132 -1.77959 199.6 4.32041C265.9 10.3204 353.7 91.4204 367.9 160.72Z" fill="white"/>
<path opacity="0.06" d="M193.9 322.92C300.988 322.92 387.8 317.861 387.8 311.62C387.8 305.38 300.988 300.32 193.9 300.32C86.8119 300.32 -0.00012207 305.38 -0.00012207 311.62C-0.00012207 317.861 86.8119 322.92 193.9 322.92Z" fill="#F5F5F5"/>
<path d="M141.859 260.92H269.459C273.659 260.92 277.259 257.52 277.459 253.32L288.859 31.7204C289.059 27.5204 285.859 24.1204 281.659 24.1204H154.059C149.859 24.1204 146.259 27.5204 146.059 31.7204L134.659 253.32C134.359 257.52 137.659 260.92 141.859 260.92Z" fill="#407BFF"/>
<path opacity="0.8" d="M141.859 260.92H269.459C273.659 260.92 277.259 257.52 277.459 253.32L288.859 31.7204C289.059 27.5204 285.859 24.1204 281.659 24.1204H154.059C149.859 24.1204 146.259 27.5204 146.059 31.7204L134.659 253.32C134.359 257.52 137.659 260.92 141.859 260.92Z" fill="white"/>
<path d="M166.659 16.9204H180.759V17.9204H166.659V16.9204Z" fill="#407BFF"/>
<path d="M185.559 16.9204H190.759V17.9204H185.559V16.9204Z" fill="#407BFF"/>
<path d="M136.359 246.82H258.359C262.359 246.82 265.859 243.52 266.059 239.52L276.959 27.6204C277.159 23.6204 274.059 20.3204 270.059 20.3204H148.059C144.059 20.3204 140.559 23.6204 140.359 27.6204L129.459 239.52C129.259 243.62 132.359 246.82 136.359 246.82Z" fill="#407BFF"/>
<path d="M136.359 242.02H258.359C259.759 242.02 261.059 240.72 261.159 239.32L272.059 27.4204C272.059 26.6204 271.759 26.1204 271.559 25.8204C271.259 25.5204 270.859 25.2204 270.059 25.2204H148.059C146.659 25.2204 145.359 26.5204 145.259 27.9204L134.259 239.82C134.259 240.62 134.559 241.12 134.759 241.42C135.159 241.62 135.559 242.02 136.359 242.02ZM270.059 25.5204C270.759 25.5204 271.159 25.8204 271.359 26.0204C271.559 26.2204 271.859 26.7204 271.859 27.4204L260.959 239.32C260.859 240.62 259.659 241.72 258.359 241.72H136.359C135.659 241.72 135.259 241.42 135.059 241.22C134.859 241.02 134.559 240.52 134.559 239.82L145.459 27.9204C145.559 26.6204 146.759 25.5204 148.059 25.5204H270.059Z" fill="white"/>
<path opacity="0.3" d="M179.028 102.45C165.153 88.21 166.057 64.8243 181.048 50.2161C196.039 35.608 219.441 35.3092 233.316 49.5489C247.192 63.7886 246.288 87.1743 231.297 101.783C216.306 116.391 192.904 116.689 179.028 102.45Z" fill="white"/>
<path d="M176.259 76.0204C175.959 81.2204 177.059 86.0204 179.159 90.2204C183.759 99.5204 193.259 105.82 204.659 105.82C216.059 105.82 226.259 99.5204 231.759 90.2204C234.259 86.0204 235.859 81.1204 236.059 76.0204C236.959 59.5204 224.259 46.1204 207.759 46.1204C191.259 46.1204 177.159 59.5204 176.259 76.0204Z" fill="white"/>
<path d="M179.159 90.2204C183.759 99.5204 193.259 105.82 204.659 105.82C216.059 105.82 226.259 99.5204 231.759 90.2204C224.459 85.2204 215.659 82.2204 205.859 82.2204C196.059 82.2204 186.959 85.2204 179.159 90.2204Z" fill="#407BFF"/>
<path d="M196.852 75.337C191.841 70.1949 192.172 61.7457 197.591 56.4651C203.01 51.1846 211.465 51.0724 216.476 56.2145C221.486 61.3566 221.155 69.8058 215.736 75.0863C210.317 80.3669 201.862 80.4791 196.852 75.337Z" fill="#407BFF"/>
<path d="M153.859 164.42H249.359C251.059 164.42 252.559 163.02 252.559 161.32L253.259 147.32C253.359 145.62 252.059 144.22 250.359 144.22H154.859C153.159 144.22 151.659 145.62 151.659 147.32L150.959 161.32C150.859 163.02 152.159 164.42 153.859 164.42Z" fill="white"/>
<path opacity="0.3" d="M183.059 136.52H222.959C224.659 136.52 226.159 135.12 226.159 133.42L226.359 130.42C226.459 128.72 225.159 127.32 223.459 127.32H183.559C181.859 127.32 180.359 128.72 180.359 130.42L180.159 133.42C180.059 135.12 181.359 136.52 183.059 136.52Z" fill="black"/>
<path opacity="0.3" d="M168.259 231.72H228.059C230.959 231.72 233.459 229.32 233.559 226.42L233.959 219.52C234.059 216.62 231.859 214.22 228.959 214.22H169.159C166.259 214.22 163.759 216.62 163.659 219.52L163.259 226.42C163.159 229.42 165.359 231.72 168.259 231.72Z" fill="black"/>
<path d="M152.059 198.32H247.559C249.259 198.32 250.759 196.92 250.759 195.22L251.459 181.22C251.559 179.52 250.259 178.12 248.559 178.12H153.059C151.359 178.12 149.859 179.52 149.859 181.22L149.159 195.22C149.059 196.92 150.359 198.32 152.059 198.32Z" fill="white"/>
<path d="M237.259 154.32C237.159 156.22 238.659 157.72 240.459 157.72C242.259 157.72 243.959 156.22 244.059 154.32C244.159 152.42 242.659 150.92 240.859 150.92C239.059 150.92 237.359 152.42 237.259 154.32Z" fill="#263238"/>
<path d="M226.759 154.32C226.659 156.22 228.159 157.72 229.959 157.72C231.859 157.72 233.459 156.22 233.559 154.32C233.659 152.42 232.159 150.92 230.359 150.92C228.559 150.92 226.859 152.42 226.759 154.32Z" fill="#263238"/>
<path d="M216.259 154.32C216.159 156.22 217.659 157.72 219.459 157.72C221.359 157.72 222.959 156.22 223.059 154.32C223.159 152.42 221.659 150.92 219.859 150.92C218.059 150.92 216.359 152.42 216.259 154.32Z" fill="#263238"/>
<path d="M205.759 154.32C205.659 156.22 207.159 157.72 208.959 157.72C210.759 157.72 212.459 156.22 212.559 154.32C212.659 152.42 211.159 150.92 209.359 150.92C207.459 150.92 205.759 152.42 205.759 154.32Z" fill="#263238"/>
<path d="M235.459 188.12C235.359 190.02 236.859 191.52 238.659 191.52C240.559 191.52 242.159 190.02 242.259 188.12C242.359 186.22 240.859 184.72 239.059 184.72C237.259 184.72 235.559 186.32 235.459 188.12Z" fill="#263238"/>
<path d="M224.959 188.12C224.859 190.02 226.359 191.52 228.159 191.52C230.059 191.52 231.659 190.02 231.759 188.12C231.859 186.22 230.359 184.72 228.559 184.72C226.759 184.72 225.059 186.32 224.959 188.12Z" fill="#263238"/>
<path d="M214.459 188.12C214.359 190.02 215.859 191.52 217.659 191.52C219.559 191.52 221.159 190.02 221.259 188.12C221.359 186.22 219.859 184.72 218.059 184.72C216.159 184.72 214.559 186.32 214.459 188.12Z" fill="#263238"/>
<path d="M203.959 188.12C203.859 190.02 205.359 191.52 207.159 191.52C209.059 191.52 210.659 190.02 210.759 188.12C210.859 186.22 209.359 184.72 207.559 184.72C205.659 184.72 204.059 186.32 203.959 188.12Z" fill="#263238"/>
<path d="M193.459 188.12C193.359 190.02 194.859 191.52 196.659 191.52C198.459 191.52 200.159 190.02 200.259 188.12C200.359 186.22 198.859 184.72 197.059 184.72C195.259 184.72 193.559 186.32 193.459 188.12Z" fill="#263238"/>
<path d="M182.959 188.12C182.859 190.02 184.359 191.52 186.159 191.52C188.059 191.52 189.659 190.02 189.759 188.12C189.859 186.22 188.359 184.72 186.559 184.72C184.759 184.72 183.059 186.32 182.959 188.12Z" fill="#263238"/>
<path d="M69.2591 72.0204C68.9591 72.4204 68.8591 72.6204 68.7591 72.8204L68.3591 73.5204C68.0591 74.0204 67.8591 74.5204 67.5591 75.0204C67.0591 76.0204 66.5591 77.0204 66.1591 78.0204C65.2591 80.0204 64.5591 82.0204 63.9591 84.1204C62.7591 88.2204 61.9591 92.4204 61.5591 96.6204L61.4591 97.4204C61.4591 97.5204 61.4591 97.7204 61.4591 97.9204V98.4204C61.4591 99.1204 61.4591 99.8204 61.5591 100.52C61.7591 101.82 62.0591 103.12 62.5591 104.22C63.4591 106.52 64.6591 108.42 66.0591 110.22C68.7591 113.72 71.8591 116.52 75.3591 119.02L78.1591 115.82C75.6591 112.92 73.2591 109.82 71.5591 106.62C70.6591 105.02 69.9591 103.42 69.5591 101.92C69.3591 101.12 69.2591 100.42 69.2591 99.8204C69.2591 99.5204 69.2591 99.2204 69.2591 98.9204V98.7204C69.2591 98.6204 69.2591 98.6204 69.2591 98.4204L69.3591 97.7204C70.0591 93.9204 70.8591 90.3204 72.0591 86.7204C72.6591 84.9204 73.3591 83.2204 74.0591 81.5204C74.4591 80.6204 74.8591 79.8204 75.2591 79.0204L75.8591 77.8204L76.1591 77.2204L76.4591 76.8204L69.2591 72.0204Z" fill="#F68B7A"/>
<path d="M78.5591 119.22L74.9591 126.82L72.0591 120.32C72.0591 120.32 74.5591 114.72 78.0591 115.22L78.5591 119.22Z" fill="#F68B7A"/>
<path d="M72.3591 127.22L69.4591 122.52L72.0591 120.42L74.9591 126.82L72.3591 127.22Z" fill="#F68B7A"/>
<path d="M88.659 303.62C87.859 303.62 87.059 303.42 86.459 303.32C86.359 303.32 86.359 303.22 86.359 303.12C86.359 303.02 86.359 302.92 86.459 302.92C86.759 302.72 89.259 301.12 90.259 301.52C90.459 301.62 90.559 301.72 90.659 302.12C90.759 302.52 90.659 302.92 90.359 303.22C89.859 303.52 89.259 303.62 88.659 303.62ZM86.959 303.02C88.459 303.32 89.559 303.22 89.959 302.92C90.159 302.72 90.159 302.52 90.159 302.22C90.159 302.02 90.059 302.02 89.959 301.92C89.459 301.72 88.059 302.42 86.959 303.02Z" fill="#407BFF"/>
<path d="M86.4591 303.32C86.4591 303.32 86.3591 303.32 86.4591 303.32C86.2591 303.22 86.2591 303.22 86.2591 303.12C86.2591 303.02 86.2591 300.62 87.1591 299.82C87.3591 299.62 87.6591 299.52 87.9591 299.52C88.4591 299.62 88.5591 299.92 88.6591 300.12C88.8591 301.02 87.3591 302.82 86.4591 303.32C86.5591 303.32 86.4591 303.32 86.4591 303.32ZM87.8591 299.92C87.6591 299.92 87.5591 300.02 87.4591 300.12C86.9591 300.62 86.7591 301.92 86.6591 302.72C87.4591 302.12 88.3591 300.72 88.2591 300.12C88.2591 300.12 88.2591 300.02 87.8591 299.92C87.9591 299.92 87.9591 299.92 87.8591 299.92Z" fill="#407BFF"/>
<path d="M98.059 299.52C98.059 299.42 97.959 299.42 98.059 299.32C98.059 299.22 98.159 299.22 98.259 299.22C98.659 299.22 102.259 299.02 103.059 299.92C103.059 299.92 103.059 299.92 103.059 300.02C103.159 300.22 103.259 300.42 103.159 300.62C103.059 301.02 102.759 301.22 102.459 301.32C101.259 301.72 99.259 300.42 98.059 299.52C98.059 299.62 98.059 299.52 98.059 299.52ZM102.759 300.22C102.359 299.72 100.359 299.62 98.859 299.62C100.459 300.72 101.659 301.22 102.359 301.02C102.559 300.92 102.759 300.82 102.859 300.52C102.859 300.42 102.859 300.32 102.759 300.22Z" fill="#407BFF"/>
<path d="M98.0591 299.52C97.9591 299.42 97.9591 299.32 98.0591 299.32C98.0591 299.22 99.2591 297.22 100.559 296.92C100.959 296.82 101.359 296.82 101.659 297.02C102.159 297.32 102.159 297.62 102.059 297.82C101.759 298.72 99.2591 299.52 98.1591 299.52C98.1591 299.62 98.0591 299.62 98.0591 299.52ZM101.659 297.52C101.659 297.52 101.559 297.42 101.459 297.42C101.159 297.22 100.959 297.22 100.659 297.32C99.7591 297.52 98.9591 298.62 98.6591 299.22C99.8591 299.12 101.659 298.32 101.759 297.82C101.759 297.72 101.759 297.62 101.659 297.52Z" fill="#407BFF"/>
<path d="M87.059 42.7204C88.059 47.7204 90.259 58.5204 86.759 61.8204C86.759 61.8204 88.159 66.8204 97.359 66.8204C107.559 66.8204 102.259 61.8204 102.259 61.8204C96.759 60.5204 96.859 56.4204 97.859 52.5204L87.059 42.7204Z" fill="#F68B7A"/>
<path d="M103.959 31.0204C103.859 31.0204 103.859 31.0204 103.759 31.0204C103.559 30.9204 103.459 30.7204 103.559 30.5204C104.559 28.5204 106.359 28.3204 106.459 28.3204C106.659 28.3204 106.859 28.4204 106.859 28.6204C106.859 28.8204 106.759 29.0204 106.559 29.0204C106.459 29.0204 105.059 29.2204 104.259 30.8204C104.259 30.9204 104.159 31.0204 103.959 31.0204Z" fill="#263238"/>
<path d="M107.059 35.4204C107.059 35.4204 108.559 38.1204 109.959 39.4204C109.159 40.3204 107.659 40.1204 107.659 40.1204L107.059 35.4204Z" fill="#F68B7A"/>
<path d="M106.259 34.3204C106.359 35.0204 106.759 35.5204 107.159 35.4204C107.559 35.3204 107.859 34.8204 107.759 34.1204C107.659 33.4204 107.259 32.9204 106.859 33.0204C106.459 33.0204 106.159 33.6204 106.259 34.3204Z" fill="#263238"/>
<path d="M106.759 33.0204L108.259 32.4204C108.259 32.4204 107.559 33.7204 106.759 33.0204Z" fill="#263238"/>
<path d="M89.2591 297.62L97.3591 299.52L102.359 280.82L94.1591 278.92L89.2591 297.62Z" fill="#F68B7A"/>
<path d="M76.7591 303.12H85.0591L84.4591 283.72H76.0591L76.7591 303.12Z" fill="#F68B7A"/>
<path d="M85.7591 302.22H76.3591C76.0591 302.22 75.7591 302.42 75.6591 302.82L74.5591 310.22C74.4591 311.02 75.1591 311.72 75.8591 311.72C79.1591 311.62 80.7591 311.52 84.8591 311.52C87.3591 311.52 91.1591 311.82 94.6591 311.82C98.0591 311.82 98.3591 308.32 96.8591 308.02C90.2591 306.62 89.2591 304.62 87.0591 302.82C86.7591 302.32 86.2591 302.22 85.7591 302.22Z" fill="#263238"/>
<path d="M98.159 298.32L89.659 294.42C89.359 294.32 88.959 294.42 88.859 294.62L84.759 300.92C84.359 301.62 84.659 302.52 85.359 302.82C88.359 304.12 89.859 304.62 93.659 306.32C95.959 307.42 100.659 309.82 103.859 311.32C106.959 312.72 108.659 309.72 107.459 308.82C102.059 304.82 100.559 301.92 99.359 299.32C98.959 298.92 98.559 298.52 98.159 298.32Z" fill="#263238"/>
<path opacity="0.2" d="M102.359 280.82L99.6591 290.82L91.6591 288.52L94.1591 278.92L102.359 280.82Z" fill="#141414"/>
<path opacity="0.2" d="M76.0591 283.72H84.4592L84.7592 293.72H76.3592L76.0591 283.72Z" fill="#141414"/>
<path d="M72.2591 63.8204C68.7591 64.6204 65.059 77.1204 65.059 77.1204L74.8591 87.6204C74.8591 87.6204 83.0591 75.8204 81.3591 71.5204C79.7591 66.9204 76.4591 62.9204 72.2591 63.8204Z" fill="#263238"/>
<path opacity="0.4" d="M77.8591 71.7204C79.6591 70.1204 80.759 70.6204 81.659 71.8204C82.459 75.5204 77.759 83.3204 75.759 86.3204C74.859 82.8204 73.8591 75.4204 77.8591 71.7204Z" fill="#141414"/>
<path d="M116.359 64.0204C116.359 64.0204 120.359 65.4204 112.359 114.62C98.8591 114.62 84.8591 114.62 78.3591 114.62C78.9591 100.82 78.9591 92.2204 72.3591 63.8204C72.3591 63.8204 79.4591 62.2204 86.7591 61.9204C92.4591 61.6204 97.1591 61.4204 102.159 61.9204C108.859 62.5204 116.359 64.0204 116.359 64.0204Z" fill="#263238"/>
<path opacity="0.4" d="M116.659 82.9204C116.459 85.3204 116.159 88.0204 115.759 91.0204C112.959 88.5204 110.659 81.4204 111.559 77.2204C113.459 78.6204 115.259 80.9204 116.659 82.9204Z" fill="#141414"/>
<path d="M113.059 75.4204C114.959 80.1204 116.959 84.5204 119.259 89.0204C121.559 93.4204 123.959 97.8204 127.259 102.02L127.859 102.82L128.159 103.22C128.259 103.32 128.359 103.42 128.559 103.62C129.159 104.32 129.859 104.92 130.559 105.42C131.959 106.42 133.359 107.02 134.759 107.52C137.559 108.42 140.159 108.82 142.759 108.92C147.959 109.12 152.959 108.62 157.959 107.62L157.359 103.42C155.059 103.42 152.659 103.42 150.359 103.22C148.059 103.12 145.759 102.82 143.459 102.42C141.259 102.02 139.059 101.52 137.359 100.72C136.459 100.32 135.759 99.8204 135.159 99.4204C134.859 99.2204 134.659 98.9204 134.459 98.7204C134.459 98.7204 134.359 98.5204 134.259 98.4204L134.059 98.1204L133.559 97.4204C131.059 93.8204 128.959 89.5204 126.859 85.3204C124.859 81.0204 122.859 76.6204 121.059 72.3204L113.059 75.4204Z" fill="#F68B7A"/>
<path d="M116.359 64.0204C120.559 65.0204 125.659 76.4204 125.659 76.4204L117.059 89.1204C117.059 89.1204 105.559 74.6204 106.959 70.2204C108.259 65.6204 111.259 62.8204 116.359 64.0204Z" fill="#263238"/>
<path d="M154.959 103.92L162.159 100.62L162.859 107.82C162.859 107.82 156.859 109.62 153.859 107.82L154.959 103.92Z" fill="#F68B7A"/>
<path d="M166.459 99.9204L167.159 105.32L162.859 107.72L162.159 100.62L166.459 99.9204Z" fill="#F68B7A"/>
<path d="M83.4591 34.8204C84.9591 43.0204 85.4591 46.5204 90.1591 50.2204C97.1591 55.8204 106.859 52.1204 107.859 43.7204C108.759 36.1204 106.059 24.0204 97.6591 21.7204C89.2591 19.4204 81.9591 26.6204 83.4591 34.8204Z" fill="#F68B7A"/>
<path d="M101.359 36.5204C101.859 40.7204 101.959 51.5204 92.8591 51.8204C81.6591 52.2204 78.2591 42.6204 79.2591 38.8204C73.4591 34.0204 72.5591 25.9204 79.1591 19.6204C85.7591 13.3204 100.159 16.8204 104.159 22.9204C109.259 30.5204 101.359 36.5204 101.359 36.5204Z" fill="#263238"/>
<path d="M90.1591 22.1204C90.6591 17.7204 90.2591 14.7204 86.1591 14.7204C82.0591 14.7204 76.4591 16.2204 74.3591 20.4204C72.2591 24.6204 72.1591 31.2204 77.8591 30.5204C83.6591 29.8204 89.4591 27.3204 90.1591 22.1204Z" fill="#407BFF"/>
<path d="M83.7591 21.0204C84.7591 15.8204 80.0591 1.02041 68.6591 0.020411C63.3591 -0.379589 60.9591 5.22042 63.6591 6.22042C58.6591 6.12042 55.4591 12.7204 60.1591 13.7204C56.4591 16.1204 57.3591 20.9204 62.6591 23.3204C66.5591 25.1204 82.4591 28.3204 83.7591 21.0204Z" fill="#263238"/>
<path d="M71.6591 26.7204C75.3591 26.7204 79.1591 26.2204 81.5591 24.6204C82.9591 23.6204 83.7591 22.4204 83.9591 20.8204C83.9591 20.7204 83.8591 20.5204 83.7591 20.5204C83.6591 20.5204 83.4591 20.6204 83.4591 20.7204C83.3591 22.1204 82.6591 23.3204 81.3591 24.1204C76.8591 27.1204 66.3591 26.1204 63.0591 25.1204C60.2591 24.2204 58.3591 22.4204 57.9591 20.3204C57.6591 18.8204 58.2591 17.3204 59.6591 16.3204C59.7591 16.2204 59.7591 16.1204 59.6591 15.9204C59.5591 15.8204 59.4591 15.8204 59.2591 15.9204C57.7591 17.1204 57.0591 18.7204 57.3591 20.4204C57.7591 22.7204 59.7591 24.6204 62.7591 25.6204C64.4591 26.1204 67.9591 26.7204 71.6591 26.7204Z" fill="#263238"/>
<path d="M103.959 35.4204C104.959 36.8204 105.259 38.5204 105.059 39.9204C104.759 42.0204 102.659 42.1204 101.159 40.8204C99.8591 39.6204 98.3591 37.0204 99.4591 35.3204C100.559 33.6204 102.759 33.8204 103.959 35.4204Z" fill="#F68B7A"/>
<path d="M103.359 114.62C103.359 114.62 98.4591 172.12 93.4591 204.52C89.3591 230.72 86.1591 291.82 86.1591 291.82H74.7591C74.7591 291.82 70.6591 232.52 72.7591 206.62C77.9591 141.12 66.3591 135.82 78.3591 114.62H103.359Z" fill="#407BFF"/>
<path opacity="0.4" d="M88.959 136.32C93.559 141.02 97.059 146.62 99.759 152.62C98.459 165.52 96.859 179.92 95.159 192.42C89.959 179.32 85.559 159.12 88.959 136.32Z" fill="#141414"/>
<path d="M111.359 114.22C111.359 114.22 121.859 177.02 123.559 205.32C119.459 231.52 102.459 286.82 102.459 286.82L92.0591 283.02C92.0591 283.02 97.7591 222.72 104.059 206.22C89.9591 158.82 79.6591 146.92 82.6591 114.62C89.8591 114.62 111.359 114.22 111.359 114.22Z" fill="#407BFF"/>
<path d="M103.859 289.52L89.8591 285.72L90.6591 280.12L105.659 284.22L103.859 289.52Z" fill="#263238"/>
<path d="M87.7591 292.02H73.1591L72.4591 286.92L87.8591 286.42L87.7591 292.02Z" fill="#263238"/>
<path d="M77.8591 112.62L76.3591 115.62C76.2591 115.82 76.5591 116.12 76.9591 116.12H112.659C112.959 116.12 113.259 115.92 113.259 115.82L113.559 112.82C113.559 112.62 113.359 112.42 112.959 112.42H78.5591C78.1591 112.32 77.8591 112.42 77.8591 112.62Z" fill="#407BFF"/>
<path opacity="0.5" d="M77.8591 112.62L76.3591 115.62C76.2591 115.82 76.5591 116.12 76.9591 116.12H112.659C112.959 116.12 113.259 115.92 113.259 115.82L113.559 112.82C113.559 112.62 113.359 112.42 112.959 112.42H78.5591C78.1591 112.32 77.8591 112.42 77.8591 112.62Z" fill="#141414"/>
<path d="M82.459 116.42H81.559C81.359 116.42 81.259 116.32 81.259 116.22L81.659 112.22C81.659 112.12 81.859 112.02 82.059 112.02H82.959C83.159 112.02 83.259 112.12 83.259 112.22L82.859 116.22C82.759 116.32 82.659 116.42 82.459 116.42Z" fill="#407BFF"/>
<path d="M94.859 87.3204C95.059 87.3204 95.259 87.1204 95.359 86.9204C98.659 74.8204 105.359 64.9204 108.659 63.4204C109.059 63.2204 109.359 63.2204 109.459 63.3204C109.759 63.4204 109.959 63.3204 110.159 63.0204C110.259 62.7204 110.159 62.5204 109.859 62.3204C109.359 62.1204 108.859 62.1204 108.159 62.4204C104.659 64.0204 97.859 73.8204 94.459 86.2204C91.959 86.2204 88.259 85.9204 87.359 85.8204C86.259 84.4204 77.8591 74.0204 80.959 62.5204C81.059 62.2204 80.859 62.0204 80.559 61.9204C80.259 61.8204 80.059 62.0204 79.959 62.3204C76.459 75.1204 86.559 86.6204 86.659 86.7204C86.759 86.8204 86.859 86.9204 86.959 86.9204C87.059 86.8204 92.059 87.3204 94.859 87.3204Z" fill="#407BFF"/>
<path d="M78.259 94.3204C83.759 84.1204 85.959 83.4204 86.959 80.1204C86.959 80.1204 86.059 77.6204 83.859 75.1204C84.559 74.9204 85.959 74.6204 86.859 74.5204C86.759 74.1204 86.659 73.6204 86.559 73.2204C87.259 73.0204 88.859 73.2204 89.559 73.3204V72.3204C89.559 72.3204 92.359 71.7204 93.459 72.1204C93.359 72.6204 93.259 73.0204 93.159 73.5204C94.159 73.7204 95.659 74.0204 96.459 74.2204C94.359 76.6204 93.559 79.1204 93.359 79.8204C96.259 84.8204 107.759 117.32 89.159 119.82C70.459 122.22 72.859 104.62 78.259 94.3204Z" fill="#407BFF"/>
<path opacity="0.4" d="M78.259 94.3204C83.759 84.1204 85.959 83.4204 86.959 80.1204C86.959 80.1204 86.059 77.6204 83.859 75.1204C84.559 74.9204 85.959 74.6204 86.859 74.5204C86.759 74.1204 86.659 73.6204 86.559 73.2204C87.259 73.0204 88.859 73.2204 89.559 73.3204V72.3204C89.559 72.3204 92.359 71.7204 93.459 72.1204C93.359 72.6204 93.259 73.0204 93.159 73.5204C94.159 73.7204 95.659 74.0204 96.459 74.2204C94.359 76.6204 93.559 79.1204 93.359 79.8204C96.259 84.8204 107.759 117.32 89.159 119.82C70.459 122.22 72.859 104.62 78.259 94.3204Z" fill="white"/>
<path d="M93.9591 78.8204C94.0591 79.0204 94.0591 80.0204 94.0591 80.4204C94.0591 80.8204 93.0591 81.0204 91.9591 81.1204C90.8591 81.2204 86.1591 81.4204 86.3591 80.9204C86.4591 80.4204 86.1591 79.7204 86.0591 79.2204C86.0591 78.8204 87.9591 78.7204 89.4591 78.8204C90.9591 78.9204 93.6591 78.3204 93.9591 78.8204Z" fill="#407BFF"/>
<path d="M104.859 116.42H103.959C103.759 116.42 103.659 116.32 103.659 116.22L104.059 112.22C104.059 112.12 104.259 112.02 104.459 112.02H105.259C105.459 112.02 105.559 112.12 105.559 112.22L105.159 116.22C105.159 116.32 104.959 116.42 104.859 116.42Z" fill="#407BFF"/>
</svg>
